<svg width="301" height="301" viewBox="0 0 301 301" fill="none" xmlns="http://www.w3.org/2000/svg">
<path d="M282.427 154.026C282.427 144.276 281.552 134.901 279.927 125.901H150.427V179.088H224.427C221.24 196.276 211.552 210.838 196.99 220.588V255.088H241.427C267.427 231.151 282.427 195.901 282.427 154.026Z" fill="#4285F4"/>
<path d="M150.427 288.401C187.552 288.401 218.677 276.088 241.427 255.088L196.99 220.588C184.677 228.838 168.927 233.713 150.427 233.713C114.615 233.713 84.3022 209.526 73.4897 177.026H27.5522V212.651C50.1772 257.588 96.6772 288.401 150.427 288.401Z" fill="#34A853"/>
<path d="M73.4898 177.026C70.7398 168.776 69.1773 159.963 69.1773 150.901C69.1773 141.838 70.7398 133.026 73.4898 124.776V89.1508H27.5523C17.9272 108.312 12.9188 129.458 12.9273 150.901C12.9273 173.088 18.2398 194.088 27.5523 212.651L73.4898 177.026Z" fill="#FBBC05"/>
<path d="M150.427 68.0883C170.615 68.0883 188.74 75.0258 202.99 88.6508L242.427 49.2133C218.615 27.0258 187.49 13.4008 150.427 13.4008C96.6772 13.4008 50.1772 44.2133 27.5522 89.1508L73.4897 124.776C84.3022 92.2758 114.615 68.0883 150.427 68.0883Z" fill="#EA4335"/>
</svg>
